<svg width="14" height="12" viewBox="0 0 14 12" fill="none" xmlns="http://www.w3.org/2000/svg">
<path d="M8.6155 6.3465H11.6733V5.5965H8.6155V6.3465ZM8.6155 4.269H11.6733V3.519H8.6155V4.269ZM2.32675 8.481H7.28875V8.3565C7.28875 7.919 7.06875 7.58025 6.62875 7.34025C6.18875 7.10025 5.58175 6.98025 4.80775 6.98025C4.03375 6.98025 3.4265 7.10025 2.986 7.34025C2.5455 7.58025 2.32575 7.919 2.32675 8.3565V8.481ZM4.80775 5.769C5.12425 5.769 5.39075 5.66075 5.60725 5.44425C5.82425 5.22725 5.93275 4.9605 5.93275 4.644C5.93275 4.3275 5.82425 4.061 5.60725 3.8445C5.39025 3.628 5.12375 3.5195 4.80775 3.519C4.49175 3.5185 4.22525 3.627 4.00825 3.8445C3.79125 4.062 3.68275 4.3285 3.68275 4.644C3.68275 4.9595 3.79125 5.22625 4.00825 5.44425C4.22525 5.66225 4.49175 5.7705 4.80775 5.769ZM1.462 11.25C1.1165 11.25 0.82825 11.1345 0.59725 10.9035C0.36625 10.6725 0.2505 10.384 0.25 10.038V1.962C0.25 1.6165 0.36575 1.32825 0.59725 1.09725C0.82875 0.86625 1.11675 0.7505 1.46125 0.75H12.5387C12.8837 0.75 13.1718 0.86575 13.4028 1.09725C13.6338 1.32875 13.7495 1.617 13.75 1.962V10.0387C13.75 10.3837 13.6343 10.672 13.4028 10.9035C13.1713 11.135 12.8832 11.2505 12.5387 11.25H1.462Z" fill="black"/>
</svg>
