<svg width="18" height="18" viewBox="0 0 18 18" fill="none" xmlns="http://www.w3.org/2000/svg">
<path d="M5.625 3.37637V4.50137H16.3125V6.72834L15.0645 10.6889H5.27105L3.8648 0.5625H0.5625V1.6875H2.8852L4.29145 11.8139H15.8895L17.4375 6.90138V3.37637H5.625ZM6.22209 12.9496C5.62556 12.9503 5.05366 13.1875 4.63185 13.6094C4.21004 14.0312 3.97277 14.6031 3.97209 15.1996C3.97209 15.7963 4.20915 16.3686 4.6311 16.7906C5.05306 17.2125 5.62536 17.4496 6.22209 17.4496C6.81883 17.4496 7.39113 17.2125 7.81308 16.7906C8.23504 16.3686 8.47209 15.7963 8.47209 15.1996C8.47144 14.6031 8.23418 14.0311 7.81236 13.6093C7.39055 13.1875 6.81863 12.9502 6.22209 12.9496ZM6.22209 16.3246C5.99959 16.3246 5.78208 16.2586 5.59708 16.135C5.41207 16.0114 5.26788 15.8357 5.18273 15.6301C5.09758 15.4245 5.0753 15.1983 5.11871 14.9801C5.16212 14.7619 5.26926 14.5614 5.4266 14.4041C5.58393 14.2468 5.78439 14.1396 6.00262 14.0962C6.22085 14.0528 6.44705 14.0751 6.65261 14.1602C6.85818 14.2454 7.03388 14.3896 7.1575 14.5746C7.28111 14.7596 7.34709 14.9771 7.34709 15.1996C7.34672 15.4978 7.22808 15.7838 7.01718 15.9947C6.80628 16.2056 6.52035 16.3242 6.22209 16.3246ZM14.0971 12.9496C13.5006 12.9503 12.9287 13.1875 12.5069 13.6094C12.085 14.0312 11.8478 14.6031 11.8471 15.1996C11.8471 15.7963 12.0841 16.3686 12.5061 16.7906C12.9281 17.2125 13.5004 17.4496 14.0971 17.4496C14.6938 17.4496 15.2661 17.2125 15.6881 16.7906C16.11 16.3686 16.3471 15.7963 16.3471 15.1996C16.3464 14.6031 16.1092 14.0311 15.6874 13.6093C15.2655 13.1875 14.6936 12.9502 14.0971 12.9496ZM14.0971 16.3246C13.8746 16.3246 13.6571 16.2586 13.4721 16.135C13.2871 16.0114 13.1429 15.8357 13.0577 15.6301C12.9726 15.4245 12.9503 15.1983 12.9937 14.9801C13.0371 14.7619 13.1443 14.5614 13.3016 14.4041C13.4589 14.2468 13.6594 14.1396 13.8776 14.0962C14.0958 14.0528 14.322 14.0751 14.5276 14.1602C14.7332 14.2454 14.9089 14.3896 15.0325 14.5746C15.1561 14.7596 15.2221 14.9771 15.2221 15.1996C15.2217 15.4978 15.1031 15.7838 14.8922 15.9947C14.6813 16.2056 14.3953 16.3242 14.0971 16.3246Z" fill="black"/>
</svg>
