<svg width="20" height="22" viewBox="0 0 20 22" fill="none" xmlns="http://www.w3.org/2000/svg">
<path d="M7.5 10.5L4.09 12.245C3.146 12.729 2.43 13.565 2.147 14.587C1.67 16.308 1 19.069 1 21M12.5 10.5L15.91 12.245C16.854 12.729 17.57 13.565 17.854 14.587C18.33 16.308 19 19.069 19 21M5 21C5 19.847 5.5 16 6.001 15" stroke="black" stroke-width="1.5" stroke-linecap="round" stroke-linejoin="round"/>
<path d="M6.00003 15.959C7.43603 16.195 10.846 15.534 13 11M10 19C10 19 15 17 16 12.5M18 15.5C17.545 17.707 16.5 20 15 21M13.5 8.058L13.921 5.903C14.416 3.366 12.523 1 10 1C7.47703 1 5.58403 3.366 6.07903 5.903L6.49903 8.058C6.83403 9.768 8.30003 11 10 11C11.702 11 13.167 9.769 13.5 8.058Z" stroke="black" stroke-width="1.5" stroke-linecap="round" stroke-linejoin="round"/>
<path d="M6 4.99988L9.03 4.13588C9.66375 3.95308 10.3363 3.95308 10.97 4.13588L14 4.99988" stroke="black" stroke-width="1.5" stroke-linecap="round" stroke-linejoin="round"/>
</svg>
