<svg width="14" height="17" viewBox="0 0 14 17" fill="none" xmlns="http://www.w3.org/2000/svg">
<path fill-rule="evenodd" clip-rule="evenodd" d="M10.5821 12.0444C10.5259 12.0669 10.1996 12.1704 9.32887 11.834C8.25674 11.42 6.78862 10.4637 5.09887 8.77511C3.41137 7.08761 2.45512 5.61836 2.04112 4.54623C1.70587 3.67548 1.80937 3.35036 1.83187 3.29411C3.59812 1.56723 7.65599 1.02948 10.2502 3.62486C12.8602 6.23486 12.4046 10.1836 10.5821 12.0444ZM4.51387 10.5537C7.82924 13.6441 10.6192 14.3911 11.7454 13.265C14.0651 10.9464 14.6884 6.35636 12.0097 3.05786L12.6589 2.40761C12.7418 2.33037 12.8083 2.23721 12.8544 2.13372C12.9005 2.03022 12.9253 1.91849 12.9273 1.8052C12.9293 1.69191 12.9084 1.57937 12.866 1.47431C12.8236 1.36925 12.7604 1.27381 12.6803 1.19369C12.6002 1.11357 12.5047 1.05041 12.3997 1.00797C12.2946 0.965536 12.1821 0.944696 12.0688 0.946694C11.9555 0.948693 11.8438 0.97349 11.7403 1.01961C11.6368 1.06572 11.5436 1.13221 11.4664 1.21511L10.815 1.86536C7.50412 -0.799765 2.82187 -0.084265 0.607867 2.12974C-0.517133 3.25474 0.229867 6.04474 3.32024 9.36124L0.777742 11.9037C0.551704 12.1298 0.372416 12.3983 0.250113 12.6937C0.127811 12.9891 0.0648892 13.3057 0.0649414 13.6254C0.0650469 14.2711 0.321651 14.8903 0.778304 15.3468C1.23496 15.8033 1.85425 16.0597 2.49995 16.0596C3.14565 16.0595 3.76486 15.8029 4.22137 15.3462L4.50262 15.065C4.58551 14.9877 4.652 14.8946 4.69812 14.7911C4.74424 14.6876 4.76903 14.5759 4.77103 14.4626C4.77303 14.3493 4.75219 14.2367 4.70975 14.1317C4.66732 14.0266 4.60416 13.9312 4.52404 13.8511C4.44391 13.7709 4.34848 13.7078 4.24341 13.6653C4.13835 13.6229 4.02582 13.6021 3.91253 13.6041C3.79924 13.6061 3.68751 13.6309 3.58401 13.677C3.48051 13.7231 3.38736 13.7896 3.31012 13.8725L3.02887 14.1537C2.88863 14.294 2.69844 14.3728 2.50012 14.3728C2.3018 14.3728 2.1116 14.294 1.97137 14.1537C1.83113 14.0135 1.75235 13.8233 1.75235 13.625C1.75235 13.4267 1.83113 13.2365 1.97137 13.0962L4.51387 10.5537Z" fill="black"/>
</svg>
