<svg width="16" height="17" viewBox="0 0 16 17" fill="none" xmlns="http://www.w3.org/2000/svg">
<path d="M10.25 15.75V9.75C10.25 9.55109 10.171 9.36032 10.0303 9.21967C9.88968 9.07902 9.69891 9 9.5 9H6.5C6.30109 9 6.11032 9.07902 5.96967 9.21967C5.82902 9.36032 5.75 9.55109 5.75 9.75V15.75" stroke="black" stroke-width="1.5" stroke-linecap="round" stroke-linejoin="round"/>
<path d="M1.25 7.5001C1.24995 7.2819 1.2975 7.06632 1.38934 6.86839C1.48118 6.67046 1.6151 6.49495 1.78175 6.3541L7.03175 1.85485C7.30249 1.62603 7.64552 1.50049 8 1.50049C8.35448 1.50049 8.69751 1.62603 8.96825 1.85485L14.2183 6.3541C14.3849 6.49495 14.5188 6.67046 14.6107 6.86839C14.7025 7.06632 14.7501 7.2819 14.75 7.5001V14.2501C14.75 14.6479 14.592 15.0295 14.3107 15.3108C14.0294 15.5921 13.6478 15.7501 13.25 15.7501H2.75C2.35218 15.7501 1.97064 15.5921 1.68934 15.3108C1.40804 15.0295 1.25 14.6479 1.25 14.2501V7.5001Z" stroke="black" stroke-width="1.5" stroke-linecap="round" stroke-linejoin="round"/>
</svg>
