<svg width="23" height="18" viewBox="0 0 23 18" fill="none" xmlns="http://www.w3.org/2000/svg">
<path d="M10.1215 12.3082V12.375H8.99648C8.37422 12.375 7.87148 12.8777 7.87148 13.5V16.5938C7.87148 17.3707 7.24219 18 6.46523 18H4.5C4.44727 18 4.39453 17.9965 4.3418 17.993C4.29961 17.9965 4.25742 18 4.21523 18H3.65273C2.87578 18 2.24648 17.3707 2.24648 16.5938V12.6562C2.24648 12.6246 2.24648 12.5895 2.25 12.5578V10.1074H1.125C0.492187 10.1074 0 9.61523 0 8.97891C0 8.6625 0.105469 8.38125 0.351562 8.13516L9.36211 0.28125C9.6082 0.0351562 9.88945 0 10.1355 0C10.3816 0 10.6629 0.0703125 10.8738 0.246094L15.7219 4.50352C15.2895 4.46836 14.843 4.60898 14.4984 4.91484C13.2539 6.02578 12.1922 7.29492 11.4293 8.52891C10.6945 9.7207 10.1215 11.0707 10.1215 12.3082ZM16.8715 18C13.7637 18 11.2465 15.4828 11.2465 12.375C11.2465 9.67852 13.4438 7.28789 15.0152 6.06797C15.191 5.93086 15.3984 5.86406 15.6059 5.86406C15.8836 5.86055 16.1684 5.97305 16.3793 6.1875L17.9965 7.80469L18.3938 7.40742C18.8051 6.99609 19.4695 6.96094 19.8809 7.37227C21.9516 9.42187 22.4965 11.257 22.4965 12.375C22.4965 15.4828 19.9793 18 16.8715 18ZM19.1215 14.0695C19.1215 12.7863 17.8207 11.5031 17.1949 10.9617C17.0051 10.7965 16.7344 10.7965 16.5445 10.9617C15.9223 11.4996 14.6215 12.7828 14.6215 14.0695C14.6215 15.3105 15.6305 16.3195 16.8715 16.3195C18.1125 16.3195 19.1215 15.3105 19.1215 14.0695Z" fill="black"/>
</svg>
