<svg width="18" height="17" viewBox="0 0 18 17" fill="none" xmlns="http://www.w3.org/2000/svg">
<path d="M6.92308 0C3.14792 0 0 2.59615 0 5.88462C0 7.56692 0.920769 9.03323 2.22854 10.1035C2.14342 10.6721 1.91227 11.2088 1.55769 11.6612C1.41293 11.8469 1.26144 12.0273 1.10354 12.2019C1.02187 12.2879 0.949255 12.3821 0.886846 12.483C0.847385 12.5474 0.785769 12.6194 0.757385 12.7648C0.729 12.9102 0.767769 13.1476 0.886846 13.3269L0.973385 13.4785L1.14646 13.5651C1.75223 13.8676 2.40646 13.8143 3.00738 13.6516C3.60762 13.4882 4.185 13.2085 4.73815 12.9157C5.29131 12.6228 5.81608 12.3175 6.23077 12.0939C6.28892 12.0628 6.32631 12.0552 6.38238 12.0288C7.47415 13.5298 9.47354 14.5385 11.7042 14.5385C11.7256 14.5412 11.7457 14.5385 11.7692 14.5385C12.6692 14.5385 15.5769 17.5112 17.3077 16.3343C17.3769 16.0581 15.786 15.3651 15.7064 13.3055C17.0612 12.348 17.9356 10.9239 17.9356 9.34615C17.9356 7.01169 16.083 5.08292 13.6087 4.392C12.8257 1.84431 10.1035 0 6.92308 0ZM6.92308 1.38462C10.071 1.38462 12.4615 3.49615 12.4615 5.88462C12.4615 8.27308 10.071 10.3846 6.92308 10.3846C6.36092 10.3846 6.03831 10.6145 5.58138 10.8609C5.12446 11.1074 4.60038 11.412 4.08877 11.6827C3.64569 11.9167 3.22338 12.0967 2.83431 12.2234C3.213 11.6765 3.60831 10.9572 3.67754 9.95192L3.69969 9.56216L3.375 9.32469C2.14131 8.46 1.38462 7.21592 1.38462 5.88462C1.38462 3.49615 3.77515 1.38462 6.92308 1.38462Z" fill="black"/>
</svg>
