<svg width="14" height="18" viewBox="0 0 14 18" fill="none" xmlns="http://www.w3.org/2000/svg">
<path d="M7 2.25002C5.60761 2.25002 4.27226 2.80314 3.28769 3.78771C2.30312 4.77227 1.75 6.10763 1.75 7.50002C1.75 9.64652 3.0865 11.7173 4.5535 13.3215C5.3036 14.1387 6.12207 14.8905 7 15.5685C7.131 15.468 7.28475 15.3455 7.46125 15.201C8.1661 14.6222 8.82948 13.9947 9.4465 13.323C10.9135 11.7173 12.25 9.64727 12.25 7.50002C12.25 6.10763 11.6969 4.77227 10.7123 3.78771C9.72774 2.80314 8.39239 2.25002 7 2.25002ZM7 17.4105L6.57475 17.118L6.5725 17.1165L6.568 17.1128L6.553 17.1023L6.49675 17.0625L6.29425 16.9148C5.26815 16.1436 4.31491 15.28 3.4465 14.3348C1.9135 12.6563 0.25 10.227 0.25 7.49927C0.25 5.70906 0.961159 3.99217 2.22703 2.7263C3.4929 1.46043 5.20979 0.749268 7 0.749268C8.79021 0.749268 10.5071 1.46043 11.773 2.7263C13.0388 3.99217 13.75 5.70906 13.75 7.49927C13.75 10.227 12.0865 12.657 10.5535 14.3333C9.68533 15.2785 8.73234 16.1421 7.7065 16.9133C7.62104 16.9771 7.53478 17.0399 7.44775 17.1015L7.432 17.112L7.4275 17.1158L7.426 17.1165L7 17.4105ZM7 6.00002C6.60218 6.00002 6.22064 6.15805 5.93934 6.43936C5.65804 6.72066 5.5 7.10219 5.5 7.50002C5.5 7.89784 5.65804 8.27937 5.93934 8.56068C6.22064 8.84198 6.60218 9.00002 7 9.00002C7.39782 9.00002 7.77936 8.84198 8.06066 8.56068C8.34196 8.27937 8.5 7.89784 8.5 7.50002C8.5 7.10219 8.34196 6.72066 8.06066 6.43936C7.77936 6.15805 7.39782 6.00002 7 6.00002ZM4 7.50002C4 6.70437 4.31607 5.94131 4.87868 5.3787C5.44129 4.81609 6.20435 4.50002 7 4.50002C7.79565 4.50002 8.55871 4.81609 9.12132 5.3787C9.68393 5.94131 10 6.70437 10 7.50002C10 8.29567 9.68393 9.05873 9.12132 9.62134C8.55871 10.1839 7.79565 10.5 7 10.5C6.20435 10.5 5.44129 10.1839 4.87868 9.62134C4.31607 9.05873 4 8.29567 4 7.50002Z" fill="black"/>
</svg>
