<svg width="18" height="18" viewBox="0 0 18 18" fill="none" xmlns="http://www.w3.org/2000/svg">
<path fill-rule="evenodd" clip-rule="evenodd" d="M12.75 2.06249C12.2072 2.06231 11.6733 2.20076 11.199 2.4647C10.7247 2.72864 10.3257 3.10933 10.0397 3.5707C9.75374 4.03206 9.59032 4.55881 9.56496 5.10102C9.53959 5.64323 9.65311 6.18294 9.89475 6.66899C10.0148 6.90899 10.0635 7.20149 9.98475 7.49549L9.795 8.20499L10.5045 8.01524C10.7818 7.94374 11.0756 7.97574 11.331 8.10524C11.7613 8.31877 12.2343 8.43229 12.7146 8.43731C13.195 8.44233 13.6702 8.33872 14.1049 8.13422C14.5396 7.92972 14.9224 7.62963 15.2247 7.25636C15.5271 6.8831 15.7412 6.44632 15.851 5.97868C15.9608 5.51103 15.9635 5.02461 15.8589 4.55578C15.7543 4.08694 15.5451 3.64781 15.2469 3.27122C14.9487 2.89462 14.5692 2.5903 14.1368 2.38099C13.7045 2.17168 13.2304 2.0628 12.75 2.06249ZM8.4375 5.24999C8.43772 4.31217 8.74363 3.39999 9.30888 2.65167C9.87414 1.90336 10.6679 1.35969 11.5699 1.10307C12.472 0.846452 13.433 0.890863 14.3076 1.22957C15.1821 1.56829 15.9223 2.18284 16.4162 2.98009C16.91 3.77735 17.1305 4.71386 17.0442 5.64769C16.9579 6.58153 16.5696 7.46179 15.9381 8.15508C15.3065 8.84837 14.4662 9.3169 13.5445 9.48967C12.6227 9.66243 11.6697 9.53002 10.83 9.11249C10.8208 9.10715 10.8106 9.10382 10.8 9.10274H10.7948L9.96075 9.32549C9.78275 9.37321 9.59532 9.37324 9.4173 9.32559C9.23928 9.27793 9.07694 9.18426 8.9466 9.05398C8.81625 8.92371 8.72248 8.76142 8.67472 8.58343C8.62696 8.40544 8.62688 8.21802 8.6745 8.03999L8.898 7.20524V7.19999C8.89668 7.18935 8.8931 7.17912 8.8875 7.16999C8.58992 6.5738 8.43582 5.91631 8.4375 5.24999ZM2.7885 3.06899C3.708 2.10149 5.229 2.28224 5.9895 3.35774L6.9345 4.69499C7.54275 5.55524 7.49175 6.74999 6.76575 7.51499L6.582 7.70774L6.5805 7.71224C6.57075 7.73999 6.54675 7.82624 6.57075 7.99124C6.621 8.33324 6.88425 9.02699 7.95525 10.1542C9.02925 11.2852 9.68025 11.5522 9.9825 11.601C10.0553 11.6176 10.1311 11.6158 10.203 11.5957L10.509 11.2732C11.1645 10.5832 12.186 10.4475 13.0103 10.9215L14.4428 11.7465C15.6675 12.4515 15.9525 14.1757 14.9738 15.2062L13.9088 16.3275C13.5765 16.6777 13.1228 16.977 12.5625 17.0325C11.1945 17.1675 8.02575 16.9912 4.704 13.494C1.6035 10.23 1.01475 7.39124 0.940501 6.00449C0.903751 5.31899 1.209 4.73174 1.611 4.30874L2.7885 3.06899ZM5.07075 4.00649C4.68675 3.46349 3.996 3.43124 3.60375 3.84374L2.42625 5.08349C2.17875 5.34524 2.0475 5.64449 2.064 5.94449C2.124 7.07699 2.61225 9.65849 5.51925 12.7192C8.56725 15.9285 11.376 16.0192 12.4523 15.9127C12.6645 15.8917 12.8835 15.7732 13.0928 15.5527L14.1578 14.4315C14.6183 13.9477 14.4975 13.0755 13.8818 12.7215L12.4493 11.8965C12.0645 11.6752 11.6138 11.7435 11.325 12.048L10.9838 12.408L10.5758 12.0202C10.983 12.408 10.983 12.408 10.9823 12.4087L10.9815 12.4102L10.9793 12.4125L10.974 12.417L10.9635 12.4275C10.932 12.4584 10.8979 12.4865 10.8615 12.5115C10.8015 12.5542 10.722 12.6015 10.6208 12.6405C10.4138 12.723 10.1408 12.7665 9.8025 12.7117C9.144 12.6045 8.2815 12.132 7.14 10.929C5.994 9.72299 5.55525 8.82374 5.45775 8.15399C5.41097 7.87996 5.43261 7.59863 5.52075 7.33499C5.56164 7.22009 5.61981 7.1121 5.69325 7.01474L5.71575 6.98699L5.72625 6.97574L5.73075 6.97124L5.733 6.96899L5.7345 6.96749C5.7345 6.96749 5.73525 6.96674 6.14325 7.35374L5.73525 6.96674L5.9505 6.74024C6.28425 6.38774 6.333 5.79224 6.0165 5.34524L5.07075 4.00649ZM12.75 3.18749C12.8992 3.18749 13.0423 3.24675 13.1477 3.35224C13.2532 3.45773 13.3125 3.6008 13.3125 3.74999V4.68749H14.25C14.3992 4.68749 14.5423 4.74675 14.6477 4.85224C14.7532 4.95773 14.8125 5.1008 14.8125 5.24999C14.8125 5.39917 14.7532 5.54225 14.6477 5.64773C14.5423 5.75322 14.3992 5.81249 14.25 5.81249H13.3125V6.74999C13.3125 6.89917 13.2532 7.04224 13.1477 7.14773C13.0423 7.25322 12.8992 7.31249 12.75 7.31249C12.6008 7.31249 12.4577 7.25322 12.3523 7.14773C12.2468 7.04224 12.1875 6.89917 12.1875 6.74999V5.81249H11.25C11.1008 5.81249 10.9577 5.75322 10.8523 5.64773C10.7468 5.54225 10.6875 5.39917 10.6875 5.24999C10.6875 5.1008 10.7468 4.95773 10.8523 4.85224C10.9577 4.74675 11.1008 4.68749 11.25 4.68749H12.1875V3.74999C12.1875 3.6008 12.2468 3.45773 12.3523 3.35224C12.4577 3.24675 12.6008 3.18749 12.75 3.18749Z" fill="black"/>
</svg>
