<svg width="14" height="16" viewBox="0 0 14 16" fill="none" xmlns="http://www.w3.org/2000/svg">
<path d="M4.018 0.25075L9.88525 0.25C9.98275 0.25 10.0788 0.2515 10.1733 0.27175L10.2662 0.29875C10.602 0.386964 10.8967 0.588871 11.1002 0.870054C11.3037 1.15124 11.4034 1.49429 11.3823 1.84075L11.3702 1.96225L11.2518 2.79025L12.046 2.98825C12.5106 3.1044 12.9259 3.36575 13.2317 3.73426C13.5375 4.10277 13.7178 4.55924 13.7463 5.03725L13.75 5.1715V11.5C13.75 12.0739 13.5308 12.6261 13.137 13.0437C12.7433 13.4613 12.2049 13.7126 11.632 13.7463L11.5 13.75H2.5C1.92609 13.75 1.37386 13.5308 0.956304 13.137C0.538745 12.7433 0.287419 12.2049 0.25375 11.632L0.25 11.5V5.1715C0.249971 4.69268 0.402692 4.22634 0.685952 3.8403C0.969211 3.45426 1.36824 3.16864 1.825 3.025L1.954 2.98825L2.74825 2.79025L2.62975 1.96225C2.58038 1.61757 2.65246 1.26644 2.83364 0.969089C3.01482 0.671735 3.2938 0.446674 3.62275 0.3325L3.73375 0.29875C3.826 0.2635 3.92125 0.25375 4.018 0.25075ZM11.038 4.28275L10.816 5.84125C10.7909 6.01778 10.7241 6.1858 10.6213 6.33146C10.5184 6.47712 10.3824 6.59624 10.2245 6.67902C10.0666 6.76179 9.89122 6.80584 9.71292 6.80753C9.53462 6.80923 9.35847 6.76851 9.199 6.68875L7.75 5.96275V12.25H11.5C11.6989 12.25 11.8897 12.171 12.0303 12.0303C12.171 11.8897 12.25 11.6989 12.25 11.5V5.1715C12.25 5.0042 12.194 4.84173 12.091 4.7099C11.988 4.57808 11.8438 4.48449 11.6815 4.444L11.038 4.28275ZM2.96125 4.28275L2.31775 4.44325C2.16973 4.48043 2.03657 4.56188 1.93607 4.67673C1.83556 4.79158 1.77248 4.93436 1.75525 5.086L1.75 5.1715V11.5C1.75002 11.6837 1.81747 11.861 1.93954 11.9983C2.06161 12.1356 2.22981 12.2233 2.41225 12.2448L2.5 12.25H6.25V5.9635L4.801 6.688C4.64901 6.76407 4.48176 6.80472 4.31181 6.80688C4.14186 6.80905 3.97362 6.77267 3.81975 6.7005C3.66587 6.62832 3.53034 6.52222 3.42335 6.39016C3.31636 6.25809 3.24068 6.1035 3.202 5.938L3.184 5.8405L2.96125 4.28275ZM10.75 8.5C10.9489 8.5 11.1397 8.57902 11.2803 8.71967C11.421 8.86032 11.5 9.05109 11.5 9.25C11.5 9.44891 11.421 9.63968 11.2803 9.78033C11.1397 9.92098 10.9489 10 10.75 10H10C9.80109 10 9.61032 9.92098 9.46967 9.78033C9.32902 9.63968 9.25 9.44891 9.25 9.25C9.25 9.05109 9.32902 8.86032 9.46967 8.71967C9.61032 8.57902 9.80109 8.5 10 8.5H10.75ZM9.7825 2.473L8.16475 4.495L9.40375 5.1145L9.781 2.4745L9.7825 2.473ZM4.2175 2.473L4.5955 5.11375L5.8345 4.49425L4.21825 2.473H4.2175ZM8.44 1.75H5.56L7 3.55L8.44 1.75Z" fill="black"/>
</svg>
