<svg width="18" height="18" viewBox="0 0 18 18" fill="none" xmlns="http://www.w3.org/2000/svg">
<path d="M6.75 1.5H2.25C2.05109 1.5 1.86032 1.57902 1.71967 1.71967C1.57902 1.86032 1.5 2.05109 1.5 2.25V6.75C1.5 6.94891 1.57902 7.13968 1.71967 7.28033C1.86032 7.42098 2.05109 7.5 2.25 7.5H6.75C6.94891 7.5 7.13968 7.42098 7.28033 7.28033C7.42098 7.13968 7.5 6.94891 7.5 6.75V2.25C7.5 2.05109 7.42098 1.86032 7.28033 1.71967C7.13968 1.57902 6.94891 1.5 6.75 1.5ZM6.75 10.5H2.25C2.05109 10.5 1.86032 10.579 1.71967 10.7197C1.57902 10.8603 1.5 11.0511 1.5 11.25V15.75C1.5 15.9489 1.57902 16.1397 1.71967 16.2803C1.86032 16.421 2.05109 16.5 2.25 16.5H6.75C6.94891 16.5 7.13968 16.421 7.28033 16.2803C7.42098 16.1397 7.5 15.9489 7.5 15.75V11.25C7.5 11.0511 7.42098 10.8603 7.28033 10.7197C7.13968 10.579 6.94891 10.5 6.75 10.5ZM15.75 1.5H11.25C11.0511 1.5 10.8603 1.57902 10.7197 1.71967C10.579 1.86032 10.5 2.05109 10.5 2.25V6.75C10.5 6.94891 10.579 7.13968 10.7197 7.28033C10.8603 7.42098 11.0511 7.5 11.25 7.5H15.75C15.9489 7.5 16.1397 7.42098 16.2803 7.28033C16.421 7.13968 16.5 6.94891 16.5 6.75V2.25C16.5 2.05109 16.421 1.86032 16.2803 1.71967C16.1397 1.57902 15.9489 1.5 15.75 1.5Z" stroke="black" stroke-width="1.5" stroke-linejoin="round"/>
<path d="M10.5 10.5H16.5M13.5 13.5H16.5M10.5 16.5H16.5" stroke="black" stroke-width="1.5" stroke-linecap="round" stroke-linejoin="round"/>
</svg>
