<svg width="14" height="14" viewBox="0 0 14 14" fill="none" xmlns="http://www.w3.org/2000/svg">
<path d="M6.99996 0.25C5.6573 0.25 4.36964 0.783369 3.42023 1.73277C2.47083 2.68217 1.93746 3.96984 1.93746 5.3125V8.01419L0.8524 10.7288C0.818297 10.8142 0.805634 10.9066 0.815517 10.998C0.8254 11.0894 0.857529 11.1769 0.909092 11.253C0.960656 11.3291 1.03008 11.3914 1.1113 11.4345C1.19251 11.4775 1.28304 11.5 1.37496 11.5H4.74996C4.74996 12.7471 5.7529 13.75 6.99996 13.75C8.24702 13.75 9.24996 12.7471 9.24996 11.5H12.625C12.7169 11.5 12.8074 11.4775 12.8886 11.4345C12.9698 11.3914 13.0393 11.3291 13.0908 11.253C13.1424 11.1769 13.1745 11.0894 13.1844 10.998C13.1943 10.9066 13.1816 10.8142 13.1475 10.7288L12.0625 8.01419V5.3125C12.0625 3.96984 11.5291 2.68217 10.5797 1.73277C9.63029 0.783369 8.34262 0.25 6.99996 0.25ZM8.12496 11.5C8.12496 12.1255 7.62546 12.625 6.99996 12.625C6.37446 12.625 5.87496 12.1255 5.87496 11.5H8.12496ZM3.06246 5.3125C3.06246 4.26821 3.47731 3.26669 4.21573 2.52827C4.95415 1.78984 5.95567 1.375 6.99996 1.375C8.04425 1.375 9.04577 1.78984 9.7842 2.52827C10.5226 3.26669 10.9375 4.26821 10.9375 5.3125V8.12219C10.9374 8.19366 10.951 8.26448 10.9774 8.33087L11.7942 10.375H2.20578L3.02252 8.33087C3.0489 8.26466 3.06246 8.19403 3.06246 8.12275V5.3125Z" fill="black"/>
</svg>
