<svg width="18" height="14" viewBox="0 0 18 14" fill="none" xmlns="http://www.w3.org/2000/svg">
<path d="M16.5 7C16.5 4.17175 16.5 2.75725 15.621 1.879C14.742 1.00075 13.3282 1 10.5 1H7.5C4.67175 1 3.25725 1 2.379 1.879C1.50075 2.758 1.5 4.17175 1.5 7C1.5 9.82825 1.5 11.2427 2.379 12.121C3.258 12.9992 4.67175 13 7.5 13H10.5C13.3282 13 14.7427 13 15.621 12.121C16.1115 11.6312 16.3283 10.975 16.4235 10M7.5 10H4.5M10.5 10H9.375M1.5 5.5H5.25M16.5 5.5H8.25" stroke="black" stroke-width="1.125" stroke-linecap="round"/>
</svg>
