<svg width="12" height="16" viewBox="0 0 12 16" fill="none" xmlns="http://www.w3.org/2000/svg">
<path d="M6 0.5C3.92888 0.5 2.25 2.17888 2.25 4.25C2.25 6.32112 3.92888 8 6 8C8.07112 8 9.75 6.32112 9.75 4.25C9.75 2.17888 8.07112 0.5 6 0.5ZM3.1875 4.25C3.1875 3.50408 3.48382 2.78871 4.01126 2.26126C4.53871 1.73382 5.25408 1.4375 6 1.4375C6.74592 1.4375 7.46129 1.73382 7.98874 2.26126C8.51618 2.78871 8.8125 3.50408 8.8125 4.25C8.8125 4.99592 8.51618 5.71129 7.98874 6.23874C7.46129 6.76618 6.74592 7.0625 6 7.0625C5.25408 7.0625 4.53871 6.76618 4.01126 6.23874C3.48382 5.71129 3.1875 4.99592 3.1875 4.25ZM1.59375 9.5C1.17113 9.5 0.765806 9.66786 0.466931 9.96667C0.168056 10.2655 9.94409e-05 10.6708 0 11.0934V11.375C0 12.7831 0.72825 13.8376 1.845 14.5175C2.94375 15.1861 4.41975 15.5 6 15.5C7.58025 15.5 9.05625 15.1861 10.155 14.5175C11.2718 13.8376 12 12.7831 12 11.375V11.0934C11.9999 10.6708 11.8319 10.2655 11.5331 9.96667C11.2342 9.66786 10.8289 9.5 10.4062 9.5H1.59375ZM0.9375 11.0934C0.937599 10.9194 1.00678 10.7526 1.12984 10.6296C1.2529 10.5066 1.41977 10.4375 1.59375 10.4375H10.4062C10.7689 10.4375 11.0625 10.7311 11.0625 11.0934V11.375C11.0625 12.404 10.5525 13.178 9.6675 13.7169C8.76375 14.267 7.4745 14.5625 6 14.5625C4.5255 14.5625 3.23625 14.267 2.3325 13.7169C1.4475 13.178 0.9375 12.4044 0.9375 11.375V11.0934Z" fill="black"/>
</svg>
