<svg width="16" height="16" viewBox="0 0 16 16" fill="none" xmlns="http://www.w3.org/2000/svg">
<path d="M14.7499 14.7499L11.4927 11.4927M11.4927 11.4927C12.0498 10.9355 12.4918 10.274 12.7933 9.54607C13.0949 8.8181 13.2501 8.03786 13.2501 7.24991C13.2501 6.46196 13.0949 5.68172 12.7933 4.95375C12.4918 4.22578 12.0498 3.56433 11.4927 3.00716C10.9355 2.44999 10.274 2.00803 9.54607 1.70649C8.8181 1.40495 8.03786 1.24976 7.24991 1.24976C6.46196 1.24976 5.68172 1.40495 4.95375 1.70649C4.22578 2.00803 3.56433 2.44999 3.00716 3.00716C1.88191 4.13241 1.24976 5.65857 1.24976 7.24991C1.24976 8.84125 1.88191 10.3674 3.00716 11.4927C4.13241 12.6179 5.65857 13.2501 7.24991 13.2501C8.84125 13.2501 10.3674 12.6179 11.4927 11.4927Z" stroke="black" stroke-width="1.5" stroke-linecap="round" stroke-linejoin="round"/>
</svg>
