<svg width="16" height="15" viewBox="0 0 16 15" fill="none" xmlns="http://www.w3.org/2000/svg">
<path d="M4.0625 8.125H1.25C1.10082 8.125 0.957742 8.06574 0.852252 7.96025C0.746763 7.85476 0.6875 7.71168 0.6875 7.5625C0.6875 7.41332 0.746763 7.27024 0.852252 7.16475C0.957742 7.05926 1.10082 7 1.25 7H3.76156L4.71922 5.56281C4.77057 5.48566 4.84018 5.42238 4.92188 5.37862C5.00357 5.33485 5.09482 5.31195 5.1875 5.31195C5.28018 5.31195 5.37143 5.33485 5.45312 5.37862C5.53482 5.42238 5.60443 5.48566 5.65578 5.56281L7.4375 8.23469L8.09422 7.25031C8.14563 7.17326 8.21527 7.11009 8.29696 7.06642C8.37866 7.02276 8.46987 6.99994 8.5625 7H10.25C10.3992 7 10.5423 7.05926 10.6477 7.16475C10.7532 7.27024 10.8125 7.41332 10.8125 7.5625C10.8125 7.71168 10.7532 7.85476 10.6477 7.96025C10.5423 8.06574 10.3992 8.125 10.25 8.125H8.86344L7.90578 9.56219C7.85443 9.63934 7.78482 9.70262 7.70312 9.74638C7.62143 9.79015 7.53018 9.81305 7.4375 9.81305C7.34482 9.81305 7.25357 9.79015 7.17188 9.74638C7.09018 9.70262 7.02057 9.63934 6.96922 9.56219L5.1875 6.88891L4.53078 7.87328C4.47953 7.9506 4.40996 8.01404 4.32826 8.05796C4.24655 8.10187 4.15526 8.12491 4.0625 8.125ZM11.5156 0.8125C10.0637 0.8125 8.79242 1.43687 8 2.49227C7.20758 1.43687 5.93633 0.8125 4.48438 0.8125C3.3286 0.813803 2.22053 1.27351 1.40327 2.09077C0.586011 2.90803 0.126303 4.0161 0.125 5.17188V5.33008C0.129662 5.47926 0.193396 5.62048 0.302182 5.72268C0.410968 5.82487 0.555894 5.87966 0.705078 5.875C0.854262 5.87034 0.995485 5.8066 1.09768 5.69782C1.19987 5.58903 1.25466 5.44411 1.25 5.29492V5.17188C1.25112 4.31441 1.59224 3.49238 2.19856 2.88606C2.80488 2.27974 3.62691 1.93862 4.48438 1.9375C5.85195 1.9375 7.00016 2.66594 7.47969 3.83594C7.52207 3.93911 7.59416 4.02735 7.6868 4.08945C7.77945 4.15155 7.88847 4.18471 8 4.18471C8.11153 4.18471 8.22055 4.15155 8.3132 4.08945C8.40584 4.02735 8.47793 3.93911 8.52031 3.83594C8.99984 2.66383 10.148 1.9375 11.5156 1.9375C12.3731 1.93862 13.1951 2.27974 13.8014 2.88606C14.4078 3.49238 14.7489 4.31441 14.75 5.17188C14.75 8.94133 9.2825 12.3543 8 13.1031C7.23852 12.6595 5.00258 11.275 3.31156 9.43211C3.26161 9.37763 3.20141 9.33353 3.13442 9.30231C3.06742 9.2711 2.99493 9.25338 2.92108 9.25018C2.84724 9.24699 2.77349 9.25836 2.70404 9.28366C2.63459 9.30897 2.57081 9.3477 2.51633 9.39766C2.46185 9.44761 2.41774 9.5078 2.38653 9.5748C2.35531 9.6418 2.3376 9.71429 2.3344 9.78814C2.3312 9.86198 2.34258 9.93573 2.36788 10.0052C2.39319 10.0746 2.43192 10.1384 2.48188 10.1929C4.67352 12.5835 7.60977 14.1782 7.73352 14.245C7.81543 14.2891 7.90699 14.3121 8 14.3121C8.09301 14.3121 8.18457 14.2891 8.26648 14.245C8.57727 14.0777 15.875 10.0938 15.875 5.17188C15.8737 4.0161 15.414 2.90803 14.5967 2.09077C13.7795 1.27351 12.6714 0.813803 11.5156 0.8125Z" fill="black"/>
</svg>
